<?xml version="1.0" standalone="no"?>
<!DOCTYPE svg PUBLIC "-//W3C//DTD SVG 20010904//EN"
 "http://www.w3.org/TR/2001/REC-SVG-20010904/DTD/svg10.dtd">
<svg version="1.0" xmlns="http://www.w3.org/2000/svg"
 width="128.000000pt" height="128.000000pt" viewBox="0 0 128.000000 128.000000"
 preserveAspectRatio="xMidYMid meet">
<metadata>
Created by potrace 1.11, written by Peter Selinger 2001-2013
</metadata>
<g transform="translate(0.000000,128.000000) scale(0.100000,-0.100000)"
fill="#000000" stroke="none">
<path d="M694 1092 c-77 -59 -152 -117 -167 -128 -25 -20 -27 -27 -27 -101 l0
-78 -85 -85 c-74 -74 -85 -88 -80 -111 4 -19 1 -28 -11 -33 -10 -4 -20 -2 -23
3 -6 10 -111 -23 -169 -53 -44 -22 -100 -74 -116 -105 -29 -56 -5 -133 56
-180 120 -93 303 -136 578 -136 133 1 171 3 270 20 60 10 132 37 150 55 11 11
27 16 39 13 26 -7 120 56 143 95 26 44 32 96 14 130 -30 59 -148 139 -186 127
-51 -16 -21 74 31 95 69 27 70 68 3 90 -28 10 -40 21 -54 56 -15 35 -24 44
-44 44 -18 0 -27 -9 -39 -38 -17 -44 -30 -55 -72 -69 -21 -7 -31 -17 -33 -35
-3 -21 3 -28 37 -41 54 -22 96 -81 51 -72 -24 5 -40 16 -108 75 -56 48 -58 59
-33 146 6 23 3 44 -17 91 l-24 60 41 124 c45 135 47 149 29 149 -7 0 -76 -49
-154 -108z"/>
<path d="M256 1014 c-9 -8 -16 -24 -16 -35 0 -26 -52 -79 -78 -79 -25 0 -55
-34 -50 -57 2 -11 19 -23 43 -31 52 -17 73 -37 85 -83 18 -67 68 -63 95 7 15
40 24 49 71 70 74 32 74 70 2 93 -41 13 -78 53 -78 82 0 21 -26 49 -45 49 -7
0 -21 -7 -29 -16z"/>
</g>
</svg>
